<?xml version="1.0" encoding="UTF-8" standalone="no"?>
<svg
   width="128"
   height="128"
   version="1.1"
   id="svg6"
   xmlns:xlink="http://www.w3.org/1999/xlink"
   xmlns="http://www.w3.org/2000/svg"
   xmlns:svg="http://www.w3.org/2000/svg"
   xmlns:rdf="http://www.w3.org/1999/02/22-rdf-syntax-ns#"
   xmlns:cc="http://creativecommons.org/ns#">
  <defs
     id="defs6">
    <rect
       x="10"
       y="95"
       width="110"
       height="25"
       id="rect4" />
    <linearGradient
       id="linearGradient2">
      <stop
         style="stop-color:#575757;stop-opacity:1;"
         offset="0"
         id="stop1" />
      <stop
         style="stop-color:#000000;stop-opacity:1;"
         offset="1"
         id="stop2" />
    </linearGradient>
    <linearGradient
       id="linearGradient6-1">
      <stop
         style="stop-color:#575757;stop-opacity:1;"
         offset="0"
         id="stop10" />
      <stop
         style="stop-color:#000000;stop-opacity:1;"
         offset="1"
         id="stop11" />
    </linearGradient>
    <linearGradient
       id="linearGradient6">
      <stop
         style="stop-color:#575757;stop-opacity:1;"
         offset="0"
         id="stop8" />
      <stop
         style="stop-color:#000000;stop-opacity:1;"
         offset="1"
         id="stop9" />
    </linearGradient>
    <linearGradient
       id="linearGradient6-2">
      <stop
         style="stop-color:#575757;stop-opacity:1;"
         offset="0"
         id="stop6" />
      <stop
         style="stop-color:#000000;stop-opacity:1;"
         offset="1"
         id="stop7" />
    </linearGradient>
    <linearGradient
       xlink:href="#linearGradient2"
       id="linearGradient7"
       x1="64.038605"
       y1="45.171413"
       x2="64.077385"
       y2="76.479912"
       gradientUnits="userSpaceOnUse" />
    <linearGradient
       xlink:href="#linearGradient6-1"
       id="linearGradient9"
       gradientUnits="userSpaceOnUse"
       x1="105"
       y1="60"
       x2="97"
       y2="60" />
    <linearGradient
       xlink:href="#linearGradient6-2"
       id="linearGradient10"
       gradientUnits="userSpaceOnUse"
       x1="97"
       y1="60"
       x2="105"
       y2="60"
       gradientTransform="translate(-74.396996)" />
    <linearGradient
       xlink:href="#linearGradient6"
       id="linearGradient11"
       gradientUnits="userSpaceOnUse"
       gradientTransform="translate(-36.232497,-25.358002)"
       x1="100.23242"
       y1="54.358002"
       x2="100.28085"
       y2="70.661346" />
  </defs>
  <rect
     width="124"
     height="124"
     x="2"
     y="2"
     fill="#363d52"
     stroke="#212532"
     stroke-width="4"
     rx="14"
     id="rect1"
     style="display:inline" />
  <g
     fill="#ffffff"
     transform="matrix(0.101,0,0,0.101,12.322,-2.126)"
     id="g4">
    <path
       d="m 105,673 v 33 q 407,354 814,0 v -33 z"
       id="path1" />
    <path
       fill="#478cbf"
       d="m 105,673 152,14 q 12,1 15,14 l 4,67 132,10 8,-61 q 2,-11 15,-15 h 162 q 13,4 15,15 l 8,61 132,-10 4,-67 q 3,-13 15,-14 L 919,673 V 427 q 30,-39 56,-81 -35,-59 -83,-108 -43,20 -82,47 -40,-37 -88,-64 7,-51 8,-102 -59,-28 -123,-42 -26,43 -46,89 -49,-7 -98,0 -20,-46 -46,-89 -64,14 -123,42 1,51 8,102 -48,27 -88,64 -39,-27 -82,-47 -48,49 -83,108 26,42 56,81 z m 0,33 v 39 c 0,276 813,276 814,0 v -39 l -134,12 -5,69 q -2,10 -14,13 l -162,11 q -12,0 -16,-11 L 578,735 H 446 l -10,65 q -4,11 -16,11 L 258,800 q -12,-3 -14,-13 l -5,-69 z"
       id="path2" />
    <path
       d="m 483,600 c 0,34 58,34 58,0 v -86 c 0,-34 -58,-34 -58,0 z"
       id="path3" />
    <circle
       cx="725"
       cy="526"
       r="90"
       id="circle3" />
    <circle
       cx="299"
       cy="526"
       r="90"
       id="circle4" />
  </g>
  <g
     fill="#414042"
     transform="matrix(0.101,0,0,0.101,12.322,-2.126)"
     id="g6"
     style="display:inline">
    <circle
       cx="307"
       cy="532"
       r="60"
       id="circle5" />
    <circle
       cx="717"
       cy="532"
       r="60"
       id="circle6" />
  </g>
  <metadata
     id="metadata6">
    <rdf:RDF>
      <cc:License
         rdf:about="http://creativecommons.org/licenses/by/4.0/">
        <cc:permits
           rdf:resource="http://creativecommons.org/ns#Reproduction" />
        <cc:permits
           rdf:resource="http://creativecommons.org/ns#Distribution" />
        <cc:requires
           rdf:resource="http://creativecommons.org/ns#Notice" />
        <cc:requires
           rdf:resource="http://creativecommons.org/ns#Attribution" />
        <cc:permits
           rdf:resource="http://creativecommons.org/ns#DerivativeWorks" />
      </cc:License>
      <cc:Work
         rdf:about="">
        <cc:license
           rdf:resource="http://creativecommons.org/licenses/by/4.0/" />
      </cc:Work>
    </rdf:RDF>
  </metadata>
  <g
     id="g13"
     transform="translate(0,-14.448)">
    <path
       id="rect6"
       style="fill:url(#linearGradient7);stroke:#3f66c0;stroke-width:0"
       d="M 41.603001,45.193661 H 86.465 c 6.094,0 11,4.906 11,11 v 9.276809 c 0,6.094 -6.535,10.961221 -11,11 C 82,76.50925 68.900464,71.952973 64.034,71.952973 c -4.866464,0 -15.491015,4.5395 -22.430999,4.517497 -6.939984,-0.022 -11,-4.906 -11,-11 v -9.276809 c 0,-6.094 4.906,-11 11,-11 z" />
    <rect
       style="fill:url(#linearGradient9);stroke:#3f66c0;stroke-width:0"
       id="rect7"
       width="7.5350037"
       height="9.6420002"
       x="97.464996"
       y="56.358002"
       ry="0" />
    <rect
       style="fill:url(#linearGradient10);stroke:#3f66c0;stroke-width:0"
       id="rect9"
       width="7.5349998"
       height="9.6420002"
       x="23.068001"
       y="56.358002"
       ry="0" />
    <path
       id="rect11"
       d="m 64,28.612213 c 2.776309,0.01488 4.983,0.475787 4.983,0.475787 L 69,45.248428 59.077558,45.248503 59.085,29.088 c 0,0 2.153576,-0.475787 4.915,-0.475787 z"
       style="fill:url(#linearGradient11);stroke:#3f66c0;stroke-width:0" />
  </g>
  <text
     xml:space="preserve"
     id="text3"
     style="font-style:normal;font-variant:normal;font-weight:bold;font-stretch:normal;font-size:21.3333px;font-family:'Rockwell Extra Bold';-inkscape-font-specification:'Rockwell Extra Bold,  Bold';text-align:center;writing-mode:lr-tb;direction:ltr;white-space:pre;shape-inside:url(#rect4);display:inline;fill:#fefdff;fill-opacity:1;stroke:#3f66c0;stroke-width:0"
     x="55"
     y="0"><tspan
       x="30.151097"
       y="113.95066"
       id="tspan1">XRT2</tspan></text>
</svg>
